<?xml version="1.0" standalone="no"?>
<!DOCTYPE svg PUBLIC "-//W3C//DTD SVG 20010904//EN"
 "http://www.w3.org/TR/2001/REC-SVG-20010904/DTD/svg10.dtd">
<svg version="1.0" xmlns="http://www.w3.org/2000/svg"
 width="512.000000pt" height="512.000000pt" viewBox="0 0 512.000000 512.000000"
 preserveAspectRatio="xMidYMid meet">
<metadata>
Created by potrace 1.16, written by Peter Selinger 2001-2019
</metadata>
<g transform="translate(0.000000,512.000000) scale(0.100000,-0.100000)"
fill="#000000" stroke="none">
<path d="M650 4845 l0 -275 134 0 134 0 4 -197 c4 -179 7 -207 32 -288 88
-292 255 -625 638 -1273 l150 -253 -155 -262 c-376 -636 -546 -976 -633 -1262
-25 -82 -28 -109 -32 -288 l-4 -197 -134 0 -134 0 0 -275 0 -275 1910 0 1910
0 0 275 0 275 -134 0 -134 0 -4 198 c-4 178 -7 205 -32 287 -87 288 -276 662
-647 1282 -77 127 -139 236 -139 243 0 6 71 131 159 278 238 402 275 467 401
717 120 236 178 373 226 530 25 82 28 109 32 288 l4 197 134 0 134 0 0 275 0
275 -1910 0 -1910 0 0 -275z m3268 -452 c-4 -177 -5 -179 -42 -278 -67 -177
-234 -496 -555 -1058 -56 -99 -132 -238 -169 -310 -91 -178 -91 -195 -3 -366
35 -69 151 -280 259 -470 293 -518 418 -764 479 -939 24 -69 27 -94 31 -249
l4 -173 -1362 0 -1362 0 4 178 c5 169 6 181 38 267 66 182 172 388 497 968
230 410 296 542 296 597 0 54 -67 190 -277 563 -325 579 -457 835 -517 1002
-31 86 -32 98 -37 268 l-4 177 1362 0 1362 0 -4 -177z"/>
<path d="M1600 4007 c0 -81 4 -102 34 -177 74 -186 145 -320 272 -517 125
-192 250 -354 428 -550 l101 -112 123 -1 122 0 66 70 c272 288 542 689 710
1054 l64 138 0 94 0 94 -960 0 -960 0 0 -93z"/>
</g>
</svg>
